<svg xmlns="http://www.w3.org/2000/svg" xmlns:xlink="http://www.w3.org/1999/xlink" width="1920" zoomAndPan="magnify" viewBox="0 0 1440 809.999993" height="1080" preserveAspectRatio="xMidYMid meet" version="1.2"><defs><clipPath id="c8a54b9c4c"><path d="M 515 363 L 821.746094 363 L 821.746094 615.101562 L 515 615.101562 Z M 515 363 "/></clipPath><clipPath id="00bf3f58db"><path d="M 396.496094 189.851562 L 808 189.851562 L 808 573 L 396.496094 573 Z M 396.496094 189.851562 "/></clipPath><clipPath id="5d7d433c42"><path d="M 741 194.960938 L 1042 194.960938 L 1042 453 L 741 453 Z M 741 194.960938 "/></clipPath><clipPath id="26b522dc4a"><path d="M 741 233 L 961 233 L 961 620.210938 L 741 620.210938 Z M 741 233 "/></clipPath><clipPath id="c71103bb31"><path d="M 559.503906 351 L 658.503906 351 L 658.503906 464 L 559.503906 464 Z M 559.503906 351 "/></clipPath></defs><g id="b97581b26f"><rect x="0" width="1440" y="0" height="809.999993" style="fill:#ffffff;fill-opacity:1;stroke:none;"/><rect x="0" width="1440" y="0" height="809.999993" style="fill:#ffffff;fill-opacity:1;stroke:none;"/><g clip-rule="nonzero" clip-path="url(#c8a54b9c4c)"><path style=" stroke:none;fill-rule:evenodd;fill:#2f3640;fill-opacity:1;" d="M 818.039062 363.140625 C 820.417969 375.878906 821.679688 389.015625 821.679688 402.441406 C 821.679688 519.835938 726.476562 615.039062 609.085938 615.039062 C 575.511719 615.039062 543.761719 607.238281 515.527344 593.367188 C 529.207031 559.042969 548.640625 527.148438 572.78125 498.613281 C 584.070312 502.878906 596.304688 505.21875 609.085938 505.21875 C 665.839844 505.21875 711.863281 459.195312 711.863281 402.441406 C 711.863281 399.988281 711.773438 397.558594 711.601562 395.148438 C 744.691406 380.25 780.433594 369.34375 818.039062 363.140625 Z M 818.039062 363.140625 "/></g><g clip-rule="nonzero" clip-path="url(#00bf3f58db)"><path style=" stroke:none;fill-rule:evenodd;fill:#f0acff;fill-opacity:1;" d="M 609.085938 189.851562 C 699.363281 189.851562 776.507812 246.15625 807.332031 325.558594 C 770.136719 332.066406 734.613281 342.828125 701.414062 357.257812 C 684.683594 323.152344 649.625 299.664062 609.085938 299.664062 C 552.335938 299.664062 506.3125 345.691406 506.3125 402.441406 C 506.3125 432.351562 519.097656 459.273438 539.492188 478.058594 C 515.769531 506.898438 496.3125 538.742188 481.972656 572.847656 C 430.089844 534.078125 396.496094 472.175781 396.496094 402.441406 C 396.496094 285.050781 491.695312 189.851562 609.085938 189.851562 Z M 609.085938 189.851562 "/></g><g clip-rule="nonzero" clip-path="url(#5d7d433c42)"><path style=" stroke:none;fill-rule:evenodd;fill:#2f3640;fill-opacity:1;" d="M 999.0625 452.25 L 999.0625 362.773438 L 909.585938 362.773438 Z M 831.253906 284.441406 L 1041.574219 284.441406 L 1041.574219 194.960938 L 741.773438 194.960938 Z M 831.253906 284.441406 "/></g><g clip-rule="nonzero" clip-path="url(#26b522dc4a)"><path style=" stroke:none;fill-rule:evenodd;fill:#3dd4ff;fill-opacity:1;" d="M 741.773438 620.054688 L 831.269531 620.054688 L 831.269531 452.242188 L 960.214844 452.242188 L 870.71875 362.773438 L 831.269531 362.773438 L 831.269531 323.304688 L 741.773438 233.816406 Z M 741.773438 620.054688 "/></g><path style=" stroke:none;fill-rule:nonzero;fill:#2f3640;fill-opacity:1;" d="M 608.5 444.558594 C 610.855469 445.992188 613.289062 447.328125 615.824219 448.488281 C 618.65625 449.785156 621.644531 450.90625 624.792969 451.542969 C 625.085938 451.601562 625.378906 451.65625 625.671875 451.707031 C 625.75 451.71875 625.828125 451.730469 625.902344 451.742188 L 625.902344 461.097656 C 625.902344 461.972656 626.613281 462.683594 627.488281 462.683594 C 628.359375 462.683594 629.070312 461.972656 629.070312 461.097656 L 629.070312 452.0625 C 629.355469 452.074219 629.640625 452.085938 629.929688 452.085938 C 631.773438 452.085938 633.65625 451.851562 635.441406 451.21875 C 637.226562 450.589844 638.914062 449.539062 640.242188 447.949219 C 641.097656 446.933594 641.757812 445.820312 642.289062 444.675781 C 642.820312 443.53125 643.226562 442.355469 643.566406 441.183594 C 643.8125 440.347656 643.332031 439.464844 642.492188 439.21875 C 641.65625 438.976562 640.773438 439.457031 640.527344 440.296875 C 640.214844 441.367188 639.859375 442.394531 639.417969 443.339844 C 638.976562 444.289062 638.457031 445.152344 637.816406 445.914062 C 636.886719 447.019531 635.734375 447.753906 634.382812 448.234375 C 633.039062 448.714844 631.503906 448.917969 629.929688 448.917969 C 628.679688 448.917969 627.410156 448.789062 626.203125 448.585938 C 625.941406 448.539062 625.679688 448.492188 625.421875 448.4375 C 622.601562 447.871094 619.835938 446.84375 617.144531 445.609375 C 614.75 444.511719 612.421875 443.238281 610.148438 441.851562 C 609.402344 441.398438 608.425781 441.636719 607.972656 442.382812 C 607.515625 443.128906 607.753906 444.105469 608.5 444.558594 Z M 608.5 444.558594 "/><g clip-rule="nonzero" clip-path="url(#c71103bb31)"><path style=" stroke:none;fill-rule:nonzero;fill:#2f3640;fill-opacity:1;" d="M 580.421875 435.933594 C 582.320312 437.300781 583.78125 439.0625 584.898438 441.101562 C 586.011719 443.140625 586.769531 445.457031 587.230469 447.867188 C 587.746094 450.550781 587.902344 453.320312 587.902344 456.140625 C 587.902344 458.152344 587.824219 460.191406 587.742188 462.242188 C 587.707031 463.117188 588.386719 463.851562 589.261719 463.886719 C 590.132812 463.921875 590.871094 463.242188 590.90625 462.367188 C 590.988281 460.316406 591.070312 458.238281 591.070312 456.140625 C 591.070312 453.203125 590.90625 450.234375 590.339844 447.273438 C 589.832031 444.601562 588.980469 441.972656 587.675781 439.582031 C 586.371094 437.191406 584.597656 435.035156 582.273438 433.363281 C 578.273438 430.488281 574.71875 427.5 571.757812 423.703125 C 565.894531 416.183594 562.679688 406.785156 562.679688 397.246094 C 562.679688 385.347656 567.5 374.589844 575.296875 366.789062 C 583.097656 358.992188 593.855469 354.171875 605.757812 354.171875 C 618.074219 354.167969 630.015625 359.582031 638.140625 368.84375 C 641.632812 372.820312 644.113281 377.265625 645.824219 382.050781 C 647.535156 386.835938 648.46875 391.957031 648.835938 397.246094 C 648.835938 397.265625 648.839844 397.285156 648.84375 397.300781 L 648.839844 397.300781 C 648.839844 397.308594 648.84375 397.355469 648.851562 397.417969 C 648.894531 397.910156 649.039062 399.492188 649.386719 401.277344 C 649.5625 402.175781 649.785156 403.125 650.085938 404.035156 C 650.390625 404.945312 650.757812 405.820312 651.292969 406.59375 C 651.730469 407.214844 652.214844 407.742188 652.683594 408.230469 C 653.394531 408.957031 654.066406 409.589844 654.535156 410.183594 C 654.769531 410.480469 654.953125 410.761719 655.082031 411.03125 C 655.214844 411.300781 655.292969 411.550781 655.328125 411.828125 C 655.34375 411.945312 655.347656 412.054688 655.347656 412.167969 C 655.347656 412.542969 655.273438 412.894531 655.121094 413.257812 C 654.898438 413.804688 654.488281 414.367188 653.960938 414.894531 C 653.4375 415.421875 652.800781 415.910156 652.179688 416.316406 C 650.914062 417.148438 649.585938 418.195312 648.476562 419.496094 C 647.921875 420.148438 647.421875 420.863281 647.027344 421.65625 C 646.628906 422.445312 646.339844 423.3125 646.214844 424.238281 C 646.175781 424.53125 646.164062 424.8125 646.164062 425.085938 C 646.164062 425.691406 646.226562 426.269531 646.277344 426.816406 C 646.332031 427.359375 646.378906 427.867188 646.378906 428.289062 C 646.378906 428.589844 646.355469 428.847656 646.3125 429.03125 C 646.273438 429.214844 646.21875 429.324219 646.171875 429.390625 C 646.148438 429.425781 646.125 429.453125 646.0625 429.492188 C 645.976562 429.554688 645.808594 429.632812 645.570312 429.691406 C 645.332031 429.75 645.035156 429.785156 644.722656 429.804688 C 644.398438 429.828125 644.074219 429.835938 643.746094 429.835938 C 640.734375 429.839844 637.707031 428.949219 635.1875 427.308594 C 634.453125 426.832031 633.472656 427.039062 632.996094 427.773438 C 632.519531 428.503906 632.726562 429.484375 633.460938 429.964844 C 636.511719 431.945312 640.117188 433.003906 643.746094 433.003906 C 644.140625 433.003906 644.535156 432.992188 644.925781 432.96875 C 645.496094 432.929688 646.144531 432.851562 646.828125 432.617188 C 647.167969 432.5 647.515625 432.339844 647.851562 432.109375 C 648.1875 431.878906 648.507812 431.578125 648.769531 431.203125 C 649.101562 430.726562 649.296875 430.210938 649.40625 429.714844 C 649.515625 429.222656 649.546875 428.746094 649.546875 428.289062 C 649.546875 427.652344 649.484375 427.054688 649.429688 426.503906 C 649.375 425.957031 649.328125 425.464844 649.332031 425.085938 C 649.332031 424.914062 649.339844 424.769531 649.355469 424.660156 C 649.425781 424.121094 649.597656 423.59375 649.859375 423.074219 C 650.246094 422.292969 650.84375 421.527344 651.558594 420.832031 C 652.273438 420.132812 653.101562 419.5 653.914062 418.964844 C 654.921875 418.304688 656.015625 417.453125 656.910156 416.347656 C 657.359375 415.792969 657.757812 415.171875 658.046875 414.472656 C 658.335938 413.773438 658.515625 412.992188 658.515625 412.167969 C 658.515625 411.925781 658.5 411.679688 658.46875 411.429688 C 658.359375 410.5625 658.046875 409.789062 657.652344 409.132812 C 657.058594 408.148438 656.308594 407.390625 655.621094 406.695312 C 654.933594 406.003906 654.304688 405.378906 653.890625 404.777344 C 653.597656 404.371094 653.277344 403.644531 653.023438 402.816406 C 652.632812 401.574219 652.371094 400.101562 652.210938 398.960938 C 652.132812 398.386719 652.078125 397.898438 652.042969 397.550781 C 652.027344 397.378906 652.011719 397.242188 652.003906 397.148438 C 652 397.101562 652 397.066406 651.996094 397.035156 L 651.992188 396.988281 L 651.988281 396.980469 C 651.605469 391.476562 650.628906 386.085938 648.808594 380.988281 C 646.980469 375.871094 644.296875 371.054688 640.519531 366.753906 C 631.78125 356.804688 619 351.007812 605.757812 351.003906 C 592.992188 351.003906 581.421875 356.183594 573.058594 364.550781 C 564.691406 372.914062 559.511719 384.484375 559.515625 397.246094 C 559.515625 407.496094 562.960938 417.5625 569.261719 425.648438 C 572.484375 429.785156 576.308594 432.972656 580.421875 435.933594 Z M 648.855469 397.382812 L 648.851562 397.382812 Z M 649.09375 398.003906 L 649.089844 398.007812 Z M 651.589844 398.191406 L 651.59375 398.191406 Z M 651.929688 397.570312 L 651.933594 397.574219 Z M 651.976562 397.335938 L 651.984375 397.335938 Z M 651.976562 397.335938 "/></g><path style=" stroke:none;fill-rule:nonzero;fill:#2f3640;fill-opacity:1;" d="M 591.785156 430.167969 C 592.660156 430.167969 593.371094 429.457031 593.371094 428.582031 L 593.371094 410.765625 C 593.371094 410.457031 593.28125 410.160156 593.113281 409.902344 L 588.753906 403.214844 C 588.785156 403.1875 588.816406 403.160156 588.847656 403.132812 C 590.199219 401.78125 591.039062 399.902344 591.039062 397.839844 C 591.039062 395.777344 590.199219 393.894531 588.847656 392.546875 C 587.496094 391.195312 585.617188 390.351562 583.554688 390.355469 C 581.492188 390.351562 579.609375 391.195312 578.261719 392.546875 C 576.910156 393.894531 576.066406 395.777344 576.066406 397.839844 C 576.066406 399.902344 576.910156 401.78125 578.261719 403.132812 C 579.609375 404.484375 581.492188 405.324219 583.554688 405.324219 C 584.433594 405.324219 585.277344 405.164062 586.0625 404.882812 L 590.203125 411.234375 L 590.203125 428.582031 C 590.203125 429.457031 590.910156 430.167969 591.785156 430.167969 Z M 583.554688 393.519531 C 584.75 393.523438 585.820312 394 586.605469 394.785156 C 587.390625 395.570312 587.871094 396.640625 587.871094 397.839844 C 587.871094 399.035156 587.390625 400.105469 586.605469 400.894531 C 585.820312 401.675781 584.75 402.15625 583.554688 402.15625 C 582.355469 402.15625 581.285156 401.675781 580.5 400.894531 C 579.714844 400.105469 579.234375 399.035156 579.234375 397.839844 C 579.234375 396.640625 579.714844 395.570312 580.5 394.785156 C 581.285156 394 582.355469 393.523438 583.554688 393.519531 Z M 583.554688 393.519531 "/><path style=" stroke:none;fill-rule:nonzero;fill:#2f3640;fill-opacity:1;" d="M 609.058594 410.765625 L 609.058594 428.582031 C 609.058594 429.457031 609.765625 430.167969 610.640625 430.167969 C 611.515625 430.167969 612.222656 429.457031 612.222656 428.582031 L 612.222656 411.234375 L 616.363281 404.882812 C 617.148438 405.164062 617.992188 405.324219 618.871094 405.324219 C 620.933594 405.324219 622.816406 404.484375 624.164062 403.132812 C 625.519531 401.78125 626.359375 399.902344 626.359375 397.839844 C 626.359375 395.777344 625.519531 393.894531 624.164062 392.546875 C 622.816406 391.195312 620.933594 390.351562 618.871094 390.355469 C 616.8125 390.351562 614.929688 391.195312 613.578125 392.546875 C 612.226562 393.894531 611.386719 395.777344 611.386719 397.839844 C 611.386719 399.902344 612.226562 401.78125 613.578125 403.132812 C 613.609375 403.160156 613.640625 403.1875 613.671875 403.214844 L 609.3125 409.902344 C 609.144531 410.160156 609.058594 410.457031 609.058594 410.765625 Z M 618.871094 393.519531 C 620.070312 393.523438 621.140625 394 621.925781 394.785156 C 622.710938 395.570312 623.191406 396.640625 623.191406 397.839844 C 623.191406 399.035156 622.710938 400.105469 621.925781 400.894531 C 621.140625 401.675781 620.070312 402.15625 618.871094 402.15625 C 617.675781 402.15625 616.605469 401.675781 615.820312 400.894531 C 615.035156 400.105469 614.554688 399.035156 614.554688 397.839844 C 614.554688 396.640625 615.035156 395.570312 615.820312 394.785156 C 616.605469 394 617.675781 393.523438 618.871094 393.519531 Z M 618.871094 393.519531 "/><path style=" stroke:none;fill-rule:nonzero;fill:#2f3640;fill-opacity:1;" d="M 601.222656 463.890625 C 602.097656 463.890625 602.804688 463.179688 602.804688 462.304688 L 602.804688 382.96875 C 604.234375 382.660156 605.519531 381.945312 606.515625 380.949219 C 607.867188 379.597656 608.707031 377.714844 608.707031 375.65625 C 608.707031 373.59375 607.867188 371.710938 606.515625 370.363281 C 605.164062 369.007812 603.285156 368.167969 601.222656 368.167969 C 599.160156 368.167969 597.277344 369.007812 595.929688 370.363281 C 594.578125 371.710938 593.734375 373.59375 593.734375 375.65625 C 593.734375 377.714844 594.578125 379.597656 595.929688 380.949219 C 596.921875 381.945312 598.207031 382.660156 599.636719 382.96875 L 599.636719 462.304688 C 599.636719 463.179688 600.347656 463.890625 601.222656 463.890625 Z M 601.222656 371.335938 C 602.417969 371.335938 603.488281 371.816406 604.273438 372.601562 C 605.058594 373.386719 605.539062 374.457031 605.539062 375.65625 C 605.539062 376.851562 605.058594 377.921875 604.273438 378.707031 C 603.488281 379.492188 602.417969 379.972656 601.222656 379.972656 C 600.023438 379.972656 598.953125 379.492188 598.167969 378.707031 C 597.382812 377.921875 596.902344 376.851562 596.902344 375.65625 C 596.902344 374.457031 597.382812 373.386719 598.167969 372.601562 C 598.953125 371.816406 600.023438 371.335938 601.222656 371.335938 Z M 601.222656 371.335938 "/></g></svg>